                                
                


                          =!HD DESI ROCKER RELEASES!=












 

Release Title: Spiderman3 720p Brrip[6 Channels][Dual-Audio[Eng-Hindi]~Boniin
Release Date: 24 May 2007 (India)
Release Length: 2h 13mn


Tagline:Next summer, the greatest battle lies... within.
  
Storyline:Peter Parker has finally managed to piece together the once-broken parts of his life,
maintaining a balance between his relationship with Mary-Jane and his responsibility as Spider-Man.
But more challenges arise for our young hero. Peter's old friend Harry Obsourne has set out for revenge
against Peter; taking up the mantle of his late father's persona as The New Goblin, and Peter must also
capture Uncle Ben's real killer, Flint Marko, who has been transformed into his toughest foe yet, the Sandman.
All hope seems lost when suddenly Peter's suit turns jet-black and greatly amplifies his powers. But it also begins
to greatly amplify the much darker qualities of Peter's personality that he begins to lose himself to. Peter has to
reach deep inside himself to free the compassionate hero he used to be if he is to ever conquer the darkness within
and face not only his greatest enemies, but also...himself. .
 






Cast:

 
 Tobey Maguire ...  Spider-Man / Peter Parker 

 Kirsten Dunst ...  Mary Jane Watson 

 James Franco ...  New Goblin / Harry Osborn 

 Thomas Haden Church ...  Sandman / Flint Marko 

 Topher Grace ...  Venom / Eddie Brock 

 Bryce Dallas Howard ...  Gwen Stacy 

 Rosemary Harris ...  May Parker 

 J.K. Simmons ...  J. Jonah Jameson 

 James Cromwell ...  Captain Stacy 

 Theresa Russell ...  Emma Marko 

 Dylan Baker ...  Dr. Curt Connors 

 Bill Nunn ...  Joseph 'Robbie' Robertson 

 Bruce Campbell ...  Maître d' 

 Elizabeth Banks ...  Miss Brant 

 Ted Raimi ...  Hoffman 




 





General INFO:

Title............................: Spiderman3 720p Brrip[6 Channels][Dual-Audio[Eng-Hindi]~Boniin
Genre............................: Action | Adventure | Thriller  | Family | Fantasy 
Directer.........................: Sam Raimi
Writer...........................: Sam Raimi/Ivan Raimi & Alvin Sargent
IMDB.............................: http://www.imdb.com/title/tt0413300/
year.............................: 24 May 2007 (India) 
User Rating......................: 6.4/10   140,714 votes »     
VIDEO Source.....................: Spiderman3 1080p Bluray x264-CBGB                                                   
File size........................: 1.66 GiB
Run time.........................: 2h 13mn
Languages........................: English.Hindi
Subtittle........................: English
Ripper...........................: BONIIN[BOW]



General
Complete name                    : E:\movie\Spiderman 3 720p Brrip[Dual-Audio][Eng-Hindi]~Boniin\Spiderman 3 720p Brrip[Dual-Audio][Eng-Hindi]~Boniin.mkv
Format                           : 
File size                        : 1.66 GiB
Duration                         : 2h 13mn



Video
ID                               : 1
Format                           : AVC-Matroska
Format/Info                      : Advanced Video Codec
Format profile                   : High@L3.1
Format settings, CABAC           : Yes
Format settings, ReFrames        : 4 frames
Muxing mode                      : Container profile=Unknown@3.1
Codec ID                         : V_MPEG4/ISO/AVC
Duration                         : 2h 13mn
Bit rate                         : 1 180 Kbps
Overall bit rate                 : 1 778 Kbps
Width                            : 1 280 pixels
Height                           : 528 pixels
Display aspect ratio             : 2.40:1
Frame rate                       : 25.000 fps
Original frame rate              : 23.976 fps
Resolution                       : 8 bits
Colorimetry                      : 4:2:0
Scan type                        : Progressive
Bits/(Pixel*Frame)               : 0.070
Stream size                      : 1.10 GiB (67%)
Writing library                  : x264 core 67 r1137M 1fda882
Encoding settings                : cabac=1 / ref=4 / deblock=1:0:0
Encoded date                     : UTC 2010-08-14 11:13:57
Writing application              : mkvmerge v3.3.0 ('Language') built on Mar 24 2010 14:59:24
Writing library                  : libebml v0.8.0 + libmatroska v0.9.0


Audio #1
ID                               : 2
Format                           : MPEG Audio
Format version                   : Version 1
Format profile                   : Layer 3
Codec ID                         : A_MPEG/L3
Codec ID/Hint                    : MP3
Duration                         : 2h 13mn
Bit rate mode                    : Constant
Bit rate                         : 112 Kbps
Channel(s)                       : 2 channels
Sampling rate                    : 48.0 KHz
Video delay                      : 2s 100ms
Stream size                      : 107 MiB (6%)
Title                            : Ripper~BONIIN
Language                         : English

Audio #2
ID                               : 3
Format                           : AC-3
Format/Info                      : Audio Coding 3
Codec ID                         : A_AC3
Duration                         : 2h 13mn
Bit rate mode                    : Constant
Bit rate                         : 448 Kbps
Channel(s)                       : 6 channels
Channel positions                : Front: L C R, Side: L R, LFE
Sampling rate                    : 48.0 KHz
Video delay                      : 1s 105ms
Stream size                      : 428 MiB (25%)
Title                            : Ripper~BONIIN~AC3-5.1Channel
Language                         : Hindi






SCREENSHOTS
 
http://img686.imageshack.us/img686/4317/1131.png 
http://img90.imageshack.us/img90/6629/vlcsnap2010082220h04m23.png 
http://img801.imageshack.us/img801/8341/vlcsnap2010082200h25m45.png 
http://img689.imageshack.us/img689/5490/vlcsnap2010082200h25m50.png 
http://img821.imageshack.us/img821/5318/vlcsnap2010082200h28m30.png 
http://img825.imageshack.us/img825/8889/1031.png 
http://img822.imageshack.us/img822/9940/vlcsnap2010082200h28m39.png 
http://img837.imageshack.us/img837/6195/vlcsnap2010082200h29m06.png 
http://img375.imageshack.us/img375/2494/vlcsnap2010082214h44m34.png 
http://img812.imageshack.us/img812/4079/9301.png 
http://img821.imageshack.us/img821/5055/vlcsnap2010082214h48m52.png 
http://img831.imageshack.us/img831/1543/vlcsnap2010082220h13m51.png 
http://img245.imageshack.us/img245/581/vlcsnap2010082220h16m03.png
